<!--?xml version="1.0" encoding="utf-8"?-->
<!-- Generator: Adobe Illustrator 18.1.1, SVG Export Plug-In . SVG Version: 6.00 Build 0)  -->

<svg version="1.1" id="_x31_0" xmlns="http://www.w3.org/2000/svg" xmlns:xlink="http://www.w3.org/1999/xlink" x="0px" y="0px" viewBox="0 0 512 512" style="width: 512px; height: 512px; opacity: 1;" xml:space="preserve">
<style type="text/css">
	.st0{fill:#374149;}
</style>
<g>
	<path class="st0" d="M396.66,232.641c-4.679-19.418-17.714-34.215-31.648-42.746c-22.286-14.543-62.367-24.238-108.122-24.238
		h-1.781c-45.754,0-85.836,9.695-108.122,24.238c-13.934,8.531-26.969,23.328-31.648,42.746
		c-10.668,44.277,22.793,106.683,50.77,113.285c17.367,4.094,21.316-22.809,29.695-37.39c11.785-20.485,35.214-28.89,58.93-28.89
		h0.75c0.172,0,0.348,0,0.516,0.007c0.168-0.007,0.344-0.007,0.516-0.007h0.75c23.715,0,47.145,8.406,58.93,28.89
		c8.379,14.582,12.328,41.484,29.695,37.39C373.867,339.324,407.328,276.918,396.66,232.641z M331.656,262.703
		c-0.66-0.114-1.316-0.274-1.965-0.52c-5.675-2.117-8.558-8.449-6.438-14.125c1.844-4.93,6.848-7.742,11.856-7.011
		c0.106,0.015,0.21,0.038,0.32,0.058c0.656,0.117,1.313,0.274,1.957,0.515c0.531,0.199,1.012,0.469,1.493,0.734
		c0.308,0.176,0.609,0.356,0.898,0.555c0.894,0.625,1.675,1.363,2.336,2.195c0.222,0.281,0.43,0.57,0.625,0.875
		c0.574,0.89,1.012,1.851,1.309,2.87c0.102,0.348,0.179,0.692,0.246,1.043c0.199,1.047,0.246,2.122,0.125,3.207
		c-0.038,0.348-0.098,0.691-0.171,1.035c-0.114,0.539-0.223,1.082-0.422,1.614c-1.847,4.926-6.851,7.738-11.859,7.011
		C331.859,262.746,331.758,262.722,331.656,262.703z M218.886,200.918c-5.785,0.508-10.156-0.664-11.21-3.465
		c-1.699-4.496,5.781-11.484,16.714-15.617c4.051-1.531,8.004-2.446,11.465-2.77c0.059-0.004,0.118-0.016,0.176-0.019
		c5.789-0.512,10.16,0.66,11.219,3.465c1.699,4.5-5.786,11.492-16.707,15.617c-4.039,1.523-7.977,2.438-11.434,2.762
		C219.035,200.898,218.961,200.91,218.886,200.918z M178.875,208.55c20.343,0,36.836,16.493,36.836,36.844
		c0,20.348-16.493,36.84-36.836,36.84c-20.348,0-36.84-16.492-36.84-36.84C142.035,225.043,158.527,208.55,178.875,208.55z
		 M239.102,255.902v-0.008c0-3.125,2.547-5.683,5.683-5.683l20.649-0.016c3.133-0.008,5.691,2.551,5.691,5.676
		c0,0.008,0,0.008,0,0.015c0,3.118-2.558,5.676-5.683,5.676l-20.649,0.016C241.664,261.578,239.102,259.027,239.102,255.902z
		 M304.82,255.039c0.657,0.117,1.317,0.278,1.965,0.519c5.684,2.125,8.563,8.45,6.442,14.133c-1.843,4.926-6.851,7.734-11.859,7.008
		c-0.102-0.016-0.203-0.035-0.305-0.054c-0.66-0.114-1.32-0.274-1.969-0.516c-5.676-2.129-8.558-8.449-6.438-14.129
		c1.848-4.934,6.856-7.742,11.856-7.016C304.617,255,304.718,255.023,304.82,255.039z M366.027,227.164
		c0.656,0.114,1.309,0.274,1.957,0.516c0.532,0.199,1.008,0.465,1.489,0.734c0.309,0.175,0.613,0.355,0.902,0.558
		c0.894,0.617,1.672,1.355,2.328,2.187c0.226,0.282,0.438,0.574,0.633,0.879c0.57,0.89,1.008,1.851,1.305,2.863
		c0.102,0.351,0.183,0.699,0.25,1.054c0.195,1.043,0.242,2.114,0.126,3.195c-0.039,0.352-0.102,0.699-0.172,1.047
		c-0.114,0.539-0.227,1.078-0.422,1.606c-1.847,4.926-6.851,7.742-11.855,7.012c-0.11-0.016-0.215-0.039-0.32-0.055
		c-0.657-0.117-1.313-0.278-1.962-0.519c-0.527-0.195-1.007-0.465-1.488-0.73c-0.309-0.176-0.61-0.36-0.902-0.559
		c-0.894-0.621-1.672-1.359-2.332-2.191c-0.222-0.281-0.43-0.57-0.629-0.875c-0.57-0.89-1.012-1.855-1.305-2.87
		c-0.102-0.348-0.183-0.692-0.25-1.043c-0.196-1.047-0.242-2.122-0.122-3.207c0.035-0.348,0.098-0.691,0.168-1.039
		c0.114-0.539,0.226-1.078,0.422-1.61c1.847-4.934,6.851-7.742,11.855-7.011C365.813,227.121,365.918,227.145,366.027,227.164z" style="fill: rgb(75, 75, 75);"></path>
	<polygon class="st0" points="172.453,231.168 172.363,231.328 185.383,231.328 181.094,223.898 179.016,220.141 178.969,220.218 
		178.875,220.058 174.598,227.461 172.359,231.168 	" style="fill: rgb(75, 75, 75);"></polygon>
	<polygon class="st0" points="185.289,259.617 185.383,259.457 176.77,259.457 172.5,259.379 172.547,259.457 172.363,259.457 
		178.875,270.726 183.156,263.309 185.383,259.621 	" style="fill: rgb(75, 75, 75);"></polygon>
	<polygon class="st0" points="204.129,245.531 204.05,245.484 204.211,245.394 196.758,241.094 193.094,238.886 193.094,238.981 
		192.934,238.886 192.934,251.898 200.375,247.606 	" style="fill: rgb(75, 75, 75);"></polygon>
	<polygon class="st0" points="164.813,251.898 164.813,243.332 164.89,239.027 164.813,239.07 164.813,238.886 157.375,243.176 
		153.614,245.254 153.695,245.301 153.535,245.394 	" style="fill: rgb(75, 75, 75);"></polygon>
	<path class="st0" d="M256,0C114.614,0,0,114.617,0,256c0,141.386,114.614,256,256,256c141.383,0,256-114.614,256-256
		C512,114.617,397.383,0,256,0z M256,448c-105.867,0-192-86.129-192-192c0-105.867,86.133-192,192-192s192,86.133,192,192
		C448,361.871,361.867,448,256,448z" style="fill: rgb(75, 75, 75);"></path>
</g>
</svg>
